<svg xmlns="http://www.w3.org/2000/svg" width="840.78" height="245.2" viewBox="0 0 840.78 245.2">
  <defs>
    <style>
      .a {
        fill: #c00;
      }

      .b {
        fill: #fff;
      }
    </style>
  </defs>
  <title>Asset 2</title>
  <g>
    <path class="a" d="M245.2,122.6A122.6,122.6,0,1,1,122.6,0,122.61,122.61,0,0,1,245.2,122.6"/>
    <path class="b" d="M181,173,132.2,55.6a7.92,7.92,0,0,0-7.6-5.2,8.17,8.17,0,0,0-7.8,5.2L63.3,184.4H81.6l21.2-53.1,63.3,51.1c2.5,2.1,4.4,3,6.8,3a8.79,8.79,0,0,0,9-8.8,10.9,10.9,0,0,0-.9-3.6M124.7,76.7,156.4,155l-47.9-37.8Z"/>
    <path class="b" d="M341.35,67.16l-10-20.66h-6.9V67.16H307.84V5.84h27.41A40.56,40.56,0,0,1,345,6.93a21.2,21.2,0,0,1,7.59,3.47,15.35,15.35,0,0,1,4.85,6.17,22.63,22.63,0,0,1,1.72,9.27,19.52,19.52,0,0,1-3,11.28,19,19,0,0,1-8.07,6.68l12.48,23.36Zm-.81-45.63a7.56,7.56,0,0,0-5.76-1.82h-10.3V33.1h10a8.39,8.39,0,0,0,6-1.75,6.87,6.87,0,0,0,1.82-5.07A6.77,6.77,0,0,0,340.54,21.53Z"/>
    <path class="b" d="M373.17,67.16V5.84h47V20.15H390v8.21h18.25v14H390V52.89h30.73V67.16Z"/>
    <path class="b" d="M485.12,50.73a22,22,0,0,1-6.31,9.57,25.63,25.63,0,0,1-10.37,5.25,56.07,56.07,0,0,1-14.31,1.61H434.24V5.84H455.7a53.4,53.4,0,0,1,13,1.49,23.71,23.71,0,0,1,10,5A23.41,23.41,0,0,1,485,21.71a41,41,0,0,1,2.23,14.61A43.23,43.23,0,0,1,485.12,50.73ZM469.06,29.16a12.06,12.06,0,0,0-2.41-5,10.33,10.33,0,0,0-4.38-2.85,21.09,21.09,0,0,0-6.79-.91h-4.2V52.63h3.65a24.1,24.1,0,0,0,6.76-.84,10.3,10.3,0,0,0,4.6-2.7,11.32,11.32,0,0,0,2.59-5,33,33,0,0,0,.76-7.67A32.17,32.17,0,0,0,469.06,29.16Z"/>
    <path class="b" d="M568.09,67.16V43H549V67.16H531.66V5.84H549V28.18h19.09V5.84h17.33V67.16Z"/>
    <path class="b" d="M640.1,67.16l-3.32-10.95H618.53l-3.36,10.95H596.92L619.19,5.84h17.15l22.27,61.32Zm-8.58-28.29-1.42-5.15L629,29.78c-.32-1.17-.58-2.26-.83-3.21a24.64,24.64,0,0,1-.59-3c-.18,1.06-.4,2.08-.62,3.07s-.51,2.08-.84,3.24L625,33.94c-.41,1.46-.88,3.14-1.39,5.08l-1.17,4h10.18Z"/>
    <path class="b" d="M693.17,20.66v46.5h-17V20.66H659V5.84h51.35V20.66Z"/>
    <path class="b" d="M733.1,16.46A7.52,7.52,0,0,1,731.46,19a8.61,8.61,0,0,1-2.52,1.68,8.79,8.79,0,0,1-6.28,0A8.06,8.06,0,0,1,720.18,19a7.15,7.15,0,0,1-1.68-2.52,8.06,8.06,0,0,1-.58-3.14,7.83,7.83,0,0,1,.58-3.1,7.15,7.15,0,0,1,1.68-2.52A7.72,7.72,0,0,1,722.66,6a8.79,8.79,0,0,1,6.28,0,8.24,8.24,0,0,1,2.52,1.68,7.52,7.52,0,0,1,1.64,2.52A8.13,8.13,0,0,1,733.1,16.46Zm-1.16-5.73a6.5,6.5,0,0,0-1.39-2.12,6.92,6.92,0,0,0-2.12-1.42,7.53,7.53,0,0,0-5.25,0,6.35,6.35,0,0,0-2.09,1.42,6.09,6.09,0,0,0-1.42,2.12,6.93,6.93,0,0,0,0,5.22,6,6,0,0,0,1.42,2.11,6.78,6.78,0,0,0,9.42,0A6.35,6.35,0,0,0,731.9,16a6.93,6.93,0,0,0,0-5.22Zm-3,2.41a2.49,2.49,0,0,1-1.35.87l1.78,3.65h-1.71L726,14.34h-1.68v3.32h-1.46V8.87h3.65a3.38,3.38,0,0,1,1.1,0,2.81,2.81,0,0,1,.91.47,2.29,2.29,0,0,1,.58.8,3,3,0,0,1,.26,1.17,2.79,2.79,0,0,1-.4,1.83Zm-1.35-2.56a1.84,1.84,0,0,0-1-.29h-2.3v2.45h2.3a1.61,1.61,0,0,0,1-.3,1,1,0,0,0,.36-.91A1.14,1.14,0,0,0,727.56,10.58Z"/>
    <path class="b" d="M367.08,176.66l-7.89-23.36h-38l-8.1,23.36H302.69l31.94-92H346l31.9,92ZM346,113.73c-.55-1.49-1.09-3.1-1.64-4.85s-1.13-3.43-1.64-5.08-1-3.14-1.39-4.6-.73-2.62-1-3.65c-.25,1-.58,2.16-1,3.65s-.84,3-1.39,4.6-1.09,3.4-1.71,5.22-1.17,3.47-1.68,5l-10.15,30h31.68Z"/>
    <path class="b" d="M453.55,176.66,413.4,113.73c-.55-.8-1.1-1.71-1.72-2.81s-1.24-2.19-1.82-3.28-1.21-2.16-1.79-3.11a20.51,20.51,0,0,1-1.24-2.37v74.5h-9.75v-92h10l39.64,64.13c.51.8,1.1,1.75,1.72,2.85l1.82,3.28c.62,1.1,1.21,2.12,1.79,3.07a24.28,24.28,0,0,1,1.24,2.37V84.68h10v92Z"/>
    <path class="b" d="M541.77,162.61a21.82,21.82,0,0,1-6,8.14,28.82,28.82,0,0,1-9.56,5.54,38.61,38.61,0,0,1-12.88,2,41.52,41.52,0,0,1-17.42-3.65,45.18,45.18,0,0,1-13.46-9.12l6.82-7.63a47.38,47.38,0,0,0,11.32,8,28.89,28.89,0,0,0,13.14,3,22.86,22.86,0,0,0,14.6-4.19,13.9,13.9,0,0,0,5.29-11.57,15.57,15.57,0,0,0-1-5.77,13.44,13.44,0,0,0-3.65-4.86,34.82,34.82,0,0,0-6.79-4.41,85.34,85.34,0,0,0-10.51-4.38,93.71,93.71,0,0,1-12.56-5.33,34.08,34.08,0,0,1-8.14-5.8,18.6,18.6,0,0,1-4.45-6.9,25.82,25.82,0,0,1-1.39-8.8A22,22,0,0,1,487.24,97a21.34,21.34,0,0,1,5.84-7.3A25,25,0,0,1,502.13,85a41.31,41.31,0,0,1,11.75-1.57,42.14,42.14,0,0,1,15.73,2.63,49.78,49.78,0,0,1,12.27,7.3l-6.57,8a41.08,41.08,0,0,0-10-6.35,30.25,30.25,0,0,0-12-2.19A26.7,26.7,0,0,0,505.09,94a16.08,16.08,0,0,0-5.59,3,11.44,11.44,0,0,0-3.14,4.27,13.75,13.75,0,0,0-1,5.19,16.3,16.3,0,0,0,.76,5.18,11.71,11.71,0,0,0,3.18,4.49,30.33,30.33,0,0,0,6.64,4.27,119.88,119.88,0,0,0,11.21,4.6,96,96,0,0,1,12.77,5.51,32.43,32.43,0,0,1,8.18,5.69,19.69,19.69,0,0,1,4.38,7.3,28.4,28.4,0,0,1,1.31,9.06A24.77,24.77,0,0,1,541.77,162.61Z"/>
    <path class="b" d="M565.79,176.66v-92h10.14v92Z"/>
    <path class="b" d="M656.23,169.91c-5.11,4.52-12.52,6.75-22.26,6.75H601.12v-92h33.21a34.7,34.7,0,0,1,10.08,1.38,22.78,22.78,0,0,1,8.17,4.2,19.2,19.2,0,0,1,5.19,7.3,26.68,26.68,0,0,1,1.82,10.22,18.55,18.55,0,0,1-3.65,12.16,21.12,21.12,0,0,1-9.56,6.6,30.18,30.18,0,0,1,6.2,2.3,20.37,20.37,0,0,1,5.66,4.35,20.62,20.62,0,0,1,4,6.6,25.79,25.79,0,0,1,1.57,9.53Q663.79,163.12,656.23,169.91Zm-10.54-72A15.17,15.17,0,0,0,634.22,94h-23v28.51h22.23a15.53,15.53,0,0,0,12.23-4.24A15.28,15.28,0,0,0,649.34,108a14.07,14.07,0,0,0-3.8-10.11Zm2.73,38.69a20.71,20.71,0,0,0-14.31-4.71H611.23v35.48h23.1c6.94,0,11.83-1.57,14.6-4.74a17.77,17.77,0,0,0,4.35-12.6,17.18,17.18,0,0,0-5-13.43Z"/>
    <path class="b" d="M683.1,176.66v-92h10.25v82.67h45.48v9.31Z"/>
    <path class="b" d="M758.65,176.66v-92h55.59V94H768.91v28.91h26.28v9.34H768.91v35.08h47.45v9.31Z"/>
    <path class="b" d="M840.16,95.48A7.28,7.28,0,0,1,838.48,98,7.77,7.77,0,0,1,836,99.64,8.21,8.21,0,0,1,827.2,98a7.94,7.94,0,0,1-1.64-2.52,8.13,8.13,0,0,1,0-6.24,7.52,7.52,0,0,1,1.64-2.52A7.78,7.78,0,0,1,829.72,85,8.72,8.72,0,0,1,836,85a7.36,7.36,0,0,1,2.48,1.68,7.15,7.15,0,0,1,1.68,2.52A8.22,8.22,0,0,1,840.16,95.48ZM839,89.75a6.19,6.19,0,0,0-1.39-2.12,6.35,6.35,0,0,0-4.74-1.89,6.77,6.77,0,0,0-2.63.47,7,7,0,0,0-2.12,1.42,6.31,6.31,0,0,0-1.38,2.12,6.93,6.93,0,0,0,0,5.22,6.47,6.47,0,0,0,1.38,2.12,6.75,6.75,0,0,0,2.12,1.38,6.27,6.27,0,0,0,2.63.52,6.43,6.43,0,0,0,2.63-.52,6.7,6.7,0,0,0,2.11-1.38A6.5,6.5,0,0,0,839,95,6.93,6.93,0,0,0,839,89.75Zm-3,2.41a2.56,2.56,0,0,1-1.35.88l1.79,3.46h-1.75L833,93.18h-1.53V96.5H830V87.89h3.65a3.32,3.32,0,0,1,1.09,0,2.67,2.67,0,0,1,.88.47,2.47,2.47,0,0,1,.62.81,3.12,3.12,0,0,1,.22,1.17,2.7,2.7,0,0,1-.48,2Zm-1.39-2.55a1.72,1.72,0,0,0-1-.3h-2.15v2.45h2.26a1.71,1.71,0,0,0,1-.29,1,1,0,0,0,.41-.92,1.06,1.06,0,0,0-.52-.94Z"/>
    <path class="b" d="M322.1,202.91v38.8h-6.9v-38.8H302v-6.7h33.3v6.7Z"/>
    <path class="b" d="M348.8,213.31c-5.1,0-8.2,4.5-8.2,11.2,0,7.5,3.4,11.6,8.5,11.6s8.4-5.1,8.4-11.4c0-7-3.3-11.4-8.7-11.4Zm.1,29.1c-8.6,0-15-7.1-15-17.7,0-11.2,6.6-17.8,15.2-17.8s15.2,7,15.2,17.6c0,11.3-6.6,17.9-15.4,17.9Z"/>
    <path class="b" d="M402.5,241.71h-5.7l-4.6-17.2c-.7-2.6-1.4-5.7-1.8-7.3-.3,1.6-1,4.7-1.8,7.3l-4.5,17.2h-5.7l-9.4-34.1h6.6l4,16.6c.6,2.6,1.4,5.8,1.7,7.5.4-1.7,1.2-4.8,1.9-7.5l4.6-16.6h5.4l4.6,16.6c.7,2.7,1.4,5.7,1.8,7.4.4-1.7,1-4.9,1.7-7.5l4-16.6h6.6Z"/>
    <path class="b" d="M431.2,212.91c-4.5,0-7.2,3.1-7.8,8.6h15.9C438.9,216.81,436.7,212.91,431.2,212.91ZM445.8,227H423.2c.7,6.6,4.4,9.4,8.6,9.4a11.81,11.81,0,0,0,7.4-2.7l4,4.3c-3,2.9-6.6,4.5-11.8,4.5-8,0-14.8-6.4-14.8-17.7,0-11.6,6.1-17.8,14.9-17.8,9.7,0,14.4,7.9,14.4,17.1A13,13,0,0,1,445.8,227Z"/>
    <path class="b" d="M472.9,214.71a9.63,9.63,0,0,0-5.1-1.2c-4.2,0-6.7,3-6.7,8.8v19.5h-6.7v-34.2h6.7v3.3a9.45,9.45,0,0,1,7.8-4,10.11,10.11,0,0,1,5.8,1.4Z"/>
  </g>
</svg>
