<svg xmlns="http://www.w3.org/2000/svg" width="927.63" height="245.2" viewBox="0 0 927.63 245.2">
  <defs>
    <style>
      .a {
        fill: #c00;
      }

      .b {
        fill: #fff;
      }
    </style>
  </defs>
  <title>Asset 1</title>
  <g>
    <path class="a" d="M245.2,122.6A122.6,122.6,0,1,1,122.6,0,122.61,122.61,0,0,1,245.2,122.6"/>
    <path class="b" d="M181,173,132.2,55.6a7.92,7.92,0,0,0-7.6-5.2,8.17,8.17,0,0,0-7.8,5.2L63.3,184.4H81.6l21.2-53.1,63.3,51.1c2.5,2.1,4.4,3,6.8,3a8.79,8.79,0,0,0,9-8.8,10.9,10.9,0,0,0-.9-3.6M124.7,76.7,156.4,155l-47.9-37.8Z"/>
    <path class="b" d="M341.35,67.16l-10-20.66h-6.9V67.16H307.84V5.84h27.41A40.56,40.56,0,0,1,345,6.93a21.2,21.2,0,0,1,7.59,3.47,15.35,15.35,0,0,1,4.85,6.17,22.63,22.63,0,0,1,1.72,9.27,19.52,19.52,0,0,1-3,11.28,19,19,0,0,1-8.07,6.68l12.48,23.36Zm-.81-45.63a7.56,7.56,0,0,0-5.76-1.82h-10.3V33.1h10a8.39,8.39,0,0,0,6-1.75,6.87,6.87,0,0,0,1.82-5.07A6.77,6.77,0,0,0,340.54,21.53Z"/>
    <path class="b" d="M373.17,67.16V5.84h47V20.15H390v8.21h18.25v14H390V52.89h30.73V67.16Z"/>
    <path class="b" d="M485.12,50.73a22,22,0,0,1-6.31,9.57,25.63,25.63,0,0,1-10.37,5.25,56.07,56.07,0,0,1-14.31,1.61H434.24V5.84H455.7a53.4,53.4,0,0,1,13,1.49,23.71,23.71,0,0,1,10,5A23.41,23.41,0,0,1,485,21.71a41,41,0,0,1,2.23,14.61A43.23,43.23,0,0,1,485.12,50.73ZM469.06,29.16a12.06,12.06,0,0,0-2.41-5,10.33,10.33,0,0,0-4.38-2.85,21.09,21.09,0,0,0-6.79-.91h-4.2V52.63h3.65a24.1,24.1,0,0,0,6.76-.84,10.3,10.3,0,0,0,4.6-2.7,11.32,11.32,0,0,0,2.59-5,33,33,0,0,0,.76-7.67A32.17,32.17,0,0,0,469.06,29.16Z"/>
    <path class="b" d="M568.09,67.16V43H549V67.16H531.66V5.84H549V28.18h19.09V5.84h17.33V67.16Z"/>
    <path class="b" d="M640.1,67.16l-3.32-10.95H618.53l-3.36,10.95H596.92L619.19,5.84h17.15l22.27,61.32Zm-8.58-28.29-1.42-5.15L629,29.78c-.32-1.17-.58-2.26-.83-3.21a24.64,24.64,0,0,1-.59-3c-.18,1.06-.4,2.08-.62,3.07s-.51,2.08-.84,3.24L625,33.94c-.41,1.46-.88,3.14-1.39,5.08l-1.17,4h10.18Z"/>
    <path class="b" d="M693.17,20.66v46.5h-17V20.66H659V5.84h51.35V20.66Z"/>
    <path class="b" d="M733.1,16.46A7.52,7.52,0,0,1,731.46,19a8.61,8.61,0,0,1-2.52,1.68,8.79,8.79,0,0,1-6.28,0A8.06,8.06,0,0,1,720.18,19a7.15,7.15,0,0,1-1.68-2.52,8.06,8.06,0,0,1-.58-3.14,7.83,7.83,0,0,1,.58-3.1,7.15,7.15,0,0,1,1.68-2.52A7.72,7.72,0,0,1,722.66,6a8.79,8.79,0,0,1,6.28,0,8.24,8.24,0,0,1,2.52,1.68,7.52,7.52,0,0,1,1.64,2.52A8.13,8.13,0,0,1,733.1,16.46Zm-1.16-5.73a6.5,6.5,0,0,0-1.39-2.12,6.92,6.92,0,0,0-2.12-1.42,7.53,7.53,0,0,0-5.25,0,6.35,6.35,0,0,0-2.09,1.42,6.09,6.09,0,0,0-1.42,2.12,6.93,6.93,0,0,0,0,5.22,6,6,0,0,0,1.42,2.11,6.78,6.78,0,0,0,9.42,0A6.35,6.35,0,0,0,731.9,16a6.93,6.93,0,0,0,0-5.22Zm-3,2.41a2.49,2.49,0,0,1-1.35.87l1.78,3.65h-1.71L726,14.34h-1.68v3.32h-1.46V8.87h3.65a3.38,3.38,0,0,1,1.1,0,2.81,2.81,0,0,1,.91.47,2.29,2.29,0,0,1,.58.8,3,3,0,0,1,.26,1.17,2.79,2.79,0,0,1-.4,1.83Zm-1.35-2.56a1.84,1.84,0,0,0-1-.29h-2.3v2.45h2.3a1.61,1.61,0,0,0,1-.3,1,1,0,0,0,.36-.91A1.14,1.14,0,0,0,727.56,10.58Z"/>
    <path class="b" d="M367.08,176.66l-7.89-23.36h-38l-8.1,23.36H302.69l31.94-92H346l31.9,92ZM346,113.73c-.55-1.49-1.09-3.1-1.64-4.85s-1.13-3.43-1.64-5.08-1-3.14-1.39-4.6-.73-2.62-1-3.65c-.25,1-.58,2.16-1,3.65s-.84,3-1.39,4.6-1.09,3.4-1.71,5.22-1.17,3.47-1.68,5l-10.15,30h31.68Z"/>
    <path class="b" d="M453.55,176.66,413.4,113.73c-.55-.8-1.1-1.71-1.72-2.81s-1.24-2.19-1.82-3.28-1.21-2.16-1.79-3.11a20.51,20.51,0,0,1-1.24-2.37v74.5h-9.75v-92h10l39.64,64.13c.51.8,1.1,1.75,1.72,2.85l1.82,3.28c.62,1.1,1.21,2.12,1.79,3.07a24.28,24.28,0,0,1,1.24,2.37V84.68h10v92Z"/>
    <path class="b" d="M541.77,162.61a21.82,21.82,0,0,1-6,8.14,28.82,28.82,0,0,1-9.56,5.54,38.61,38.61,0,0,1-12.88,2,41.52,41.52,0,0,1-17.42-3.65,45.18,45.18,0,0,1-13.46-9.12l6.82-7.63a47.38,47.38,0,0,0,11.32,8,28.89,28.89,0,0,0,13.14,3,22.86,22.86,0,0,0,14.6-4.19,13.9,13.9,0,0,0,5.29-11.57,15.57,15.57,0,0,0-1-5.77,13.44,13.44,0,0,0-3.65-4.86,34.82,34.82,0,0,0-6.79-4.41,85.34,85.34,0,0,0-10.51-4.38,93.71,93.71,0,0,1-12.56-5.33,34.08,34.08,0,0,1-8.14-5.8,18.6,18.6,0,0,1-4.45-6.9,25.82,25.82,0,0,1-1.39-8.8A22,22,0,0,1,487.24,97a21.34,21.34,0,0,1,5.84-7.3A25,25,0,0,1,502.13,85a41.31,41.31,0,0,1,11.75-1.57,42.14,42.14,0,0,1,15.73,2.63,49.78,49.78,0,0,1,12.27,7.3l-6.57,8a41.08,41.08,0,0,0-10-6.35,30.25,30.25,0,0,0-12-2.19A26.7,26.7,0,0,0,505.09,94a16.08,16.08,0,0,0-5.59,3,11.44,11.44,0,0,0-3.14,4.27,13.75,13.75,0,0,0-1,5.19,16.3,16.3,0,0,0,.76,5.18,11.71,11.71,0,0,0,3.18,4.49,30.33,30.33,0,0,0,6.64,4.27,119.88,119.88,0,0,0,11.21,4.6,96,96,0,0,1,12.77,5.51,32.43,32.43,0,0,1,8.18,5.69,19.69,19.69,0,0,1,4.38,7.3,28.4,28.4,0,0,1,1.31,9.06A24.77,24.77,0,0,1,541.77,162.61Z"/>
    <path class="b" d="M565.79,176.66v-92h10.14v92Z"/>
    <path class="b" d="M656.23,169.91c-5.11,4.52-12.52,6.75-22.26,6.75H601.12v-92h33.21a34.7,34.7,0,0,1,10.08,1.38,22.78,22.78,0,0,1,8.17,4.2,19.2,19.2,0,0,1,5.19,7.3,26.68,26.68,0,0,1,1.82,10.22,18.55,18.55,0,0,1-3.65,12.16,21.12,21.12,0,0,1-9.56,6.6,30.18,30.18,0,0,1,6.2,2.3,20.37,20.37,0,0,1,5.66,4.35,20.62,20.62,0,0,1,4,6.6,25.79,25.79,0,0,1,1.57,9.53Q663.79,163.12,656.23,169.91Zm-10.54-72A15.17,15.17,0,0,0,634.22,94h-23v28.51h22.23a15.53,15.53,0,0,0,12.23-4.24A15.28,15.28,0,0,0,649.34,108a14.07,14.07,0,0,0-3.8-10.11Zm2.73,38.69a20.71,20.71,0,0,0-14.31-4.71H611.23v35.48h23.1c6.94,0,11.83-1.57,14.6-4.74a17.77,17.77,0,0,0,4.35-12.6,17.18,17.18,0,0,0-5-13.43Z"/>
    <path class="b" d="M683.1,176.66v-92h10.25v82.67h45.48v9.31Z"/>
    <path class="b" d="M758.65,176.66v-92h55.59V94H768.91v28.91h26.28v9.34H768.91v35.08h47.45v9.31Z"/>
    <path class="b" d="M840.16,95.48A7.28,7.28,0,0,1,838.48,98,7.77,7.77,0,0,1,836,99.64,8.21,8.21,0,0,1,827.2,98a7.94,7.94,0,0,1-1.64-2.52,8.13,8.13,0,0,1,0-6.24,7.52,7.52,0,0,1,1.64-2.52A7.78,7.78,0,0,1,829.72,85,8.72,8.72,0,0,1,836,85a7.36,7.36,0,0,1,2.48,1.68,7.15,7.15,0,0,1,1.68,2.52A8.22,8.22,0,0,1,840.16,95.48ZM839,89.75a6.19,6.19,0,0,0-1.39-2.12,6.35,6.35,0,0,0-4.74-1.89,6.77,6.77,0,0,0-2.63.47,7,7,0,0,0-2.12,1.42,6.31,6.31,0,0,0-1.38,2.12,6.93,6.93,0,0,0,0,5.22,6.47,6.47,0,0,0,1.38,2.12,6.75,6.75,0,0,0,2.12,1.38,6.27,6.27,0,0,0,2.63.52,6.43,6.43,0,0,0,2.63-.52,6.7,6.7,0,0,0,2.11-1.38A6.5,6.5,0,0,0,839,95,6.93,6.93,0,0,0,839,89.75Zm-3,2.41a2.56,2.56,0,0,1-1.35.88l1.79,3.46h-1.75L833,93.18h-1.53V96.5H830V87.89h3.65a3.32,3.32,0,0,1,1.09,0,2.67,2.67,0,0,1,.88.47,2.47,2.47,0,0,1,.62.81,3.12,3.12,0,0,1,.22,1.17,2.7,2.7,0,0,1-.48,2Zm-1.39-2.55a1.72,1.72,0,0,0-1-.3h-2.15v2.45h2.26a1.71,1.71,0,0,0,1-.29,1,1,0,0,0,.41-.92,1.06,1.06,0,0,0-.52-.94Z"/>
    <path class="b" d="M336.2,242.36,318,213.52c-.55-.87-1.21-1.86-1.86-3l-1.57-2.62v34.49h-6.68v-46h7l17.48,28.07c.33.47.66,1,1,1.64l1.1,1.86a16.65,16.65,0,0,0,1,1.75l.73,1.24V196.37h6.68v46Z"/>
    <path class="b" d="M381.68,226.19v1.35H358.76a14,14,0,0,0,1,4.27,10.15,10.15,0,0,0,2,2.92,8.45,8.45,0,0,0,5.66,2.26,10.64,10.64,0,0,0,4-.73,15.58,15.58,0,0,0,3.65-2l3.79,4.34a16.61,16.61,0,0,1-5.11,3.36,18.08,18.08,0,0,1-6.75,1.17,14.42,14.42,0,0,1-5.69-1.1,13.37,13.37,0,0,1-4.75-3.65,16.65,16.65,0,0,1-3.25-5.54,23.84,23.84,0,0,1-1.17-7.63,25.29,25.29,0,0,1,1.1-7.78,17.1,17.1,0,0,1,3.1-5.62,13.24,13.24,0,0,1,4.78-3.43,15.34,15.34,0,0,1,6.13-1.17,14.08,14.08,0,0,1,6.39,1.35,13.5,13.5,0,0,1,4.56,3.65,16,16,0,0,1,2.67,5.51,23.36,23.36,0,0,1,.91,6.65C381.75,225.06,381.72,225.64,381.68,226.19Zm-7.3-7.59a8.15,8.15,0,0,0-1.46-2.78,7.2,7.2,0,0,0-2.48-1.86,8.06,8.06,0,0,0-3.65-.69,6.9,6.9,0,0,0-5.41,2.26A11.53,11.53,0,0,0,358.9,222H375a15.91,15.91,0,0,0-.69-3.36Z"/>
    <path class="b" d="M406.13,241.52a10.78,10.78,0,0,1-2.95,1.13,14.53,14.53,0,0,1-3.65.44,7.3,7.3,0,0,1-5.7-2.23,9.86,9.86,0,0,1-2.08-6.9V214.07h-4.92v-6.2h4.92v-9.68l6.65-3.65v13.4h8.54v6.2H398.4v18.73a4.84,4.84,0,0,0,.84,3.28,3.58,3.58,0,0,0,2.7.84,8.86,8.86,0,0,0,2.7-.43,10.24,10.24,0,0,0,2.3-.95Z"/>
    <path class="b" d="M446.47,242.36h-5.81L436,225l-1-4c-.33-1.38-.59-2.48-.77-3.32-.18.84-.44,1.94-.77,3.36s-.65,2.74-1,4.05l-4.6,17.34h-5.77l-9.45-34.49h6.68l4.09,16.75c.34,1.31.67,2.7,1,4.16s.55,2.59.73,3.4c.22-.88.48-2,.84-3.4s.7-2.77,1.06-4.16l4.6-16.75h5.62l4.67,16.82c.37,1.35.7,2.74,1,4.13s.58,2.48.8,3.36c.22-.88.47-2,.77-3.44s.62-2.81.94-4.12l4.09-16.75h6.68Z"/>
    <path class="b" d="M490.41,232.61a17.14,17.14,0,0,1-3.28,5.73A14.51,14.51,0,0,1,482.2,242,15.54,15.54,0,0,1,476,243.2a14.53,14.53,0,0,1-5.95-1.21,13.9,13.9,0,0,1-4.78-3.65,16.7,16.7,0,0,1-3.21-5.65,22.1,22.1,0,0,1-1.13-7.3,23.11,23.11,0,0,1,1.17-7.56,17.88,17.88,0,0,1,3.24-5.69,14.09,14.09,0,0,1,4.9-3.65,15,15,0,0,1,6.05-1.21,14.31,14.31,0,0,1,11,4.93,16.48,16.48,0,0,1,3.21,5.62,21.81,21.81,0,0,1,1.13,7.3A23.51,23.51,0,0,1,490.41,232.61Zm-8-15.87A7.49,7.49,0,0,0,476,213.6a7,7,0,0,0-6.1,3.14,16.86,16.86,0,0,0,.19,16.93,7.61,7.61,0,0,0,6.24,3,7,7,0,0,0,3.65-.91,8.88,8.88,0,0,0,2.7-2.48,11.51,11.51,0,0,0,1.71-3.65,16,16,0,0,0,.59-4.45A13.59,13.59,0,0,0,482.42,216.74Z"/>
    <path class="b" d="M518.74,215.06a12.39,12.39,0,0,0-2.3-.95,11.09,11.09,0,0,0-2.92-.33,6,6,0,0,0-5,2.26,10.28,10.28,0,0,0-1.78,6.61v19.71h-6.83V207.87h6.83v3.28A9.64,9.64,0,0,1,510,208.3a9.4,9.4,0,0,1,4.64-1.13,15.58,15.58,0,0,1,3.47.33,8.38,8.38,0,0,1,2.37,1.1Z"/>
    <path class="b" d="M547.1,242.36l-7.67-17.12-5.29,6.94v10.18h-6.75V198.19l6.82-3.65v29.2L536,221c.73-1.14,1.39-2.08,2-2.92l7.3-10.08H553l-8.76,11.57,10.4,22.92Z"/>
    <path class="b" d="M611.23,242.36l-3.87-11H589.11l-3.65,11h-7.3l16.57-46H602l16.75,46Zm-9.75-27.63c-.25-.84-.54-1.75-.91-2.78s-.69-2-1-3-.62-1.93-.91-2.77-.48-1.53-.62-2l-.59,2c-.24.83-.53,1.74-.87,2.74s-.62,2-.95,3.06-.62,2-1,2.81L591,225.28h14.12Z"/>
    <path class="b" d="M646.38,242.36V239a8.52,8.52,0,0,1-3.65,3,11.53,11.53,0,0,1-5,1.06,11,11,0,0,1-9.16-3.87,18.2,18.2,0,0,1-3.1-11.57V207.87h6.82v19.52a11,11,0,0,0,1.86,7.3,6.6,6.6,0,0,0,5.19,2.08,6.39,6.39,0,0,0,5.25-2.08,10.28,10.28,0,0,0,1.83-6.49V207.87h6.82v34.49Z"/>
    <path class="b" d="M679.63,241.52a10.92,10.92,0,0,1-2.92,1.13,14.94,14.94,0,0,1-3.65.44,7.28,7.28,0,0,1-5.69-2.23,9.85,9.85,0,0,1-2-6.9V214.07h-4.93v-6.2h4.93v-9.68l6.61-3.65v13.4h8.54v6.2h-8.54v18.73a4.9,4.9,0,0,0,.84,3.28,3.64,3.64,0,0,0,2.74.84,8.61,8.61,0,0,0,2.66-.43,9.08,9.08,0,0,0,2.3-.95Z"/>
    <path class="b" d="M716.2,232.61a15.92,15.92,0,0,1-3.28,5.73A13.86,13.86,0,0,1,708,242a15.2,15.2,0,0,1-6.17,1.21,14.23,14.23,0,0,1-6-1.28,13.83,13.83,0,0,1-4.82-3.65,17.37,17.37,0,0,1-3.17-5.66,24,24,0,0,1,0-14.89,16.55,16.55,0,0,1,3.25-5.69,13.82,13.82,0,0,1,4.85-3.65,15.2,15.2,0,0,1,6.1-1.21A14.63,14.63,0,0,1,713,212a16.06,16.06,0,0,1,3.21,5.62,22.1,22.1,0,0,1,1.17,7.3A22.64,22.64,0,0,1,716.2,232.61Zm-8-15.87a7.57,7.57,0,0,0-6.5-3.14,7,7,0,0,0-6.06,3.14A13.92,13.92,0,0,0,693.5,225a13.65,13.65,0,0,0,2.37,8.72,7.64,7.64,0,0,0,6.24,3,7.25,7.25,0,0,0,3.65-.91,9.3,9.3,0,0,0,2.71-2.48,10.91,10.91,0,0,0,1.67-3.65,16,16,0,0,0,.63-4.45A13.86,13.86,0,0,0,708.25,216.74Z"/>
    <path class="b" d="M766,242.36V222.9a12.22,12.22,0,0,0-1.64-7.3,6,6,0,0,0-5-2.11,5.67,5.67,0,0,0-5,2.3,10.92,10.92,0,0,0-1.64,6.49v20.08h-6.83V222.9a12.22,12.22,0,0,0-1.64-7.3,6,6,0,0,0-5-2.11,5.67,5.67,0,0,0-5,2.3,11,11,0,0,0-1.61,6.49v20.08h-7V207.87h6.87v3.35a8.48,8.48,0,0,1,3.43-3,10.13,10.13,0,0,1,4.78-1.06,11.61,11.61,0,0,1,5.84,1.28,9.83,9.83,0,0,1,3.65,3.65,17.94,17.94,0,0,1,1.93-2.15,10.88,10.88,0,0,1,2.3-1.57,10.68,10.68,0,0,1,2.78-1,15.44,15.44,0,0,1,3.65-.37,10.49,10.49,0,0,1,9,3.87,19.22,19.22,0,0,1,2.88,11.57v19.93Z"/>
    <path class="b" d="M802.23,242.36V239a15.76,15.76,0,0,1-4.19,3,12.42,12.42,0,0,1-5.26,1.17,14.11,14.11,0,0,1-4.23-.62,11.09,11.09,0,0,1-3.87-2,10.27,10.27,0,0,1-2.78-3.65,12.09,12.09,0,0,1-1.09-5.36,11,11,0,0,1,1.06-5,10.14,10.14,0,0,1,2.88-3.65,12.53,12.53,0,0,1,4.34-2,21.27,21.27,0,0,1,5.44-.66,19.09,19.09,0,0,1,7.7,1.31v-2.59a5.42,5.42,0,0,0-1.67-4.3,6.87,6.87,0,0,0-4.82-1.54,19.59,19.59,0,0,0-4.82.55,15.81,15.81,0,0,0-4.2,1.64l-2.74-5a23.28,23.28,0,0,1,5.33-2.3,25,25,0,0,1,6.5-.77,14.61,14.61,0,0,1,9.38,2.85,10.52,10.52,0,0,1,3.65,8.69v23.65Zm0-14.6a12.78,12.78,0,0,0-3.24-1.1,21.25,21.25,0,0,0-4.64-.4,8.49,8.49,0,0,0-5.18,1.39,4.31,4.31,0,0,0-1.9,3.65,5.49,5.49,0,0,0,1.64,4.16,7.05,7.05,0,0,0,5,1.57,9.16,9.16,0,0,0,5-1.39,11.42,11.42,0,0,0,3.39-3Z"/>
    <path class="b" d="M835.09,241.52a11.05,11.05,0,0,1-2.92,1.13,15,15,0,0,1-3.65.44,7.29,7.29,0,0,1-5.7-2.23,10,10,0,0,1-2.33-6.9V214.07h-4.93v-6.2h4.93v-9.68l6.64-3.65v13.4h8.54v6.2h-8.54v18.73a4.88,4.88,0,0,0,.8,3.28,3.64,3.64,0,0,0,2.74.84,8.81,8.81,0,0,0,2.7-.43,10.05,10.05,0,0,0,2.3-.95Z"/>
    <path class="b" d="M851.73,202.14a4.17,4.17,0,1,1,0-6.17A4.39,4.39,0,0,1,851.73,202.14Zm-6.46,40.15V207.87h6.82v34.49Z"/>
    <path class="b" d="M890.27,232.61a17.14,17.14,0,0,1-3.28,5.73,14.51,14.51,0,0,1-4.93,3.65,15.72,15.72,0,0,1-6.2,1.21,14,14,0,0,1-11-4.93,17.39,17.39,0,0,1-3.18-5.66,24.73,24.73,0,0,1,0-14.89A17.15,17.15,0,0,1,865,212a13.91,13.91,0,0,1,4.85-3.65,15.24,15.24,0,0,1,6.1-1.21,14.35,14.35,0,0,1,11,4.93,16,16,0,0,1,3.24,5.62,23.21,23.21,0,0,1,1.14,7.3A23.79,23.79,0,0,1,890.27,232.61Zm-8-15.87a7.56,7.56,0,0,0-6.46-3.14,7,7,0,0,0-6.1,3.14,14,14,0,0,0-2.19,8.21,13.65,13.65,0,0,0,2.38,8.72,7.61,7.61,0,0,0,6.24,3,7.3,7.3,0,0,0,3.47-.91,9.39,9.39,0,0,0,2.7-2.48,11.51,11.51,0,0,0,1.71-3.65,17.6,17.6,0,0,0,.59-4.45A13.57,13.57,0,0,0,882.28,216.74Z"/>
    <path class="b" d="M920.75,242.36V222.9a11,11,0,0,0-1.86-7.3,6.66,6.66,0,0,0-5.22-2.11,6.22,6.22,0,0,0-5.22,2.3,10.19,10.19,0,0,0-1.82,6.49v20.08H899.8V207.87h6.83v3.35a8.16,8.16,0,0,1,3.65-3,11.61,11.61,0,0,1,5-1.06,11,11,0,0,1,9.16,3.87,18,18,0,0,1,3.14,11.57v19.75Z"/>
  </g>
</svg>
