<?xml version="1.0" encoding="utf-8"?>
<!-- Generator: Adobe Illustrator 21.0.2, SVG Export Plug-In . SVG Version: 6.00 Build 0)  -->
<svg version="1.1" id="svg2" xmlns="http://www.w3.org/2000/svg" xmlns:xlink="http://www.w3.org/1999/xlink" x="0px" y="0px"
	 viewBox="0 0 117.5 39.6" style="enable-background:new 0 0 117.5 39.6;" xml:space="preserve">
<style type="text/css">
	.st0{fill:#FFFFFF;}
</style>
<title>google-play</title>
<g id="Symbols">
	<g id="mobile-app">
		<g id="apple_appstore">
			<path id="background" d="M4.8,0h107.9c2.6,0,4.7,2.1,4.8,4.7c0,0,0,0.1,0,0.1v30c0,2.6-2.1,4.8-4.8,4.8H4.8
				c-1.3,0-2.5-0.5-3.4-1.4C0.5,37.3,0,36,0,34.8v-30C0,2.2,2.1,0,4.8,0C4.7,0,4.7,0,4.8,0z"/>
			<g id="Page-1">
				<g id="GooglePlay">
					<g id="App-Store">
						<g id="icon">
							<path id="Fill-2" class="st0" d="M25.8,19.4c0-1.8,0.9-3.5,2.4-4.4c-0.9-1.4-2.4-2.3-4.1-2.3c-1.7-0.2-3.4,1-4.3,1
								c-0.9,0-2.2-1-3.7-1c-2,0.1-3.7,1.2-4.7,2.9c-2,3.6-0.5,8.8,1.4,11.7c0.9,1.4,2.1,3,3.5,2.9s2-0.9,3.7-0.9
								c1.7,0,2.2,0.9,3.7,0.9c1.5,0,2.6-1.4,3.4-2.9c0.7-1,1.2-2.2,1.5-3.4C26.9,23.2,25.8,21.4,25.8,19.4"/>
							<path id="Fill-3" class="st0" d="M23,10.7c0.8-1,1.3-2.4,1.2-3.7c-1.3,0.1-2.5,0.7-3.3,1.7c-0.9,1-1.3,2.3-1.2,3.6
								C21.1,12.4,22.3,11.7,23,10.7"/>
						</g>
						<path id="Fill-4" class="st0" d="M46.6,30.1h-2l-1-3.6h-3.8l-1,3.6h-2l3.7-12.2h2.3L46.6,30.1z M43.2,25l-1-3.1
							c-0.3-0.8-0.4-1.5-0.6-2.3l0,0c-0.1,0.5-0.3,1.3-0.6,2.3L40,25H43.2z"/>
						<path id="Fill-5" class="st0" d="M56.3,25.6c0.1,1.3-0.3,2.5-1.2,3.5c-0.6,0.8-1.6,1.2-2.6,1.2c-1,0.1-1.9-0.4-2.4-1.3v4.7
							h-1.9v-9.4c0-1,0-1.9-0.1-2.9h1.6l0.1,1.4l0,0c0.6-1,1.7-1.7,2.9-1.6c1,0,1.9,0.5,2.4,1.3C56,23.3,56.3,24.4,56.3,25.6z
							 M54.3,25.7c0-0.7-0.2-1.5-0.6-2.1c-0.3-0.6-1-0.9-1.6-0.8c-0.5,0-0.9,0.1-1.3,0.5c-0.3,0.4-0.6,0.8-0.7,1.3
							c0,0.2-0.1,0.3-0.1,0.6v1.5c0,0.6,0.2,1.2,0.6,1.6c0.4,0.5,0.9,0.7,1.5,0.7c0.7,0.1,1.3-0.3,1.6-0.8
							C54.2,27.4,54.4,26.6,54.3,25.7z"/>
						<path id="Fill-6" class="st0" d="M66.1,25.6c0.1,1.3-0.3,2.5-1.2,3.5c-0.6,0.7-1.6,1.2-2.6,1.2c-1,0.1-1.9-0.4-2.4-1.3v4.7H58
							v-9.4c0-1,0-1.9-0.1-2.9h1.6l0.1,1.4l0,0c0.6-1,1.7-1.7,2.9-1.6c1,0,1.9,0.5,2.4,1.3C65.7,23.3,66.1,24.4,66.1,25.6z
							 M64.1,25.7c0-0.7-0.2-1.5-0.6-2.1c-0.3-0.6-1-0.9-1.6-0.8c-0.5,0-0.9,0.1-1.3,0.5c-0.3,0.4-0.6,0.8-0.7,1.3
							c0,0.2-0.1,0.3-0.1,0.6v1.5c0,0.6,0.2,1.2,0.6,1.6c0.4,0.5,0.9,0.7,1.5,0.7c0.7,0.1,1.3-0.3,1.6-0.8
							C63.9,27.4,64.1,26.6,64.1,25.7z"/>
						<path id="Fill-7" class="st0" d="M76.9,26.8c0,1-0.4,1.9-1,2.6c-1.8,1.3-4.2,1.4-6.2,0.2l0.5-1.6c0.8,0.5,1.7,0.8,2.7,0.8
							c0.6,0.1,1.2-0.1,1.6-0.5c0.4-0.3,0.6-0.8,0.6-1.3c0-0.5-0.1-0.9-0.5-1.3c-0.4-0.5-1-0.8-1.6-0.9c-2.1-0.8-3.1-1.9-3.1-3.5
							c-0.1-0.9,0.3-1.8,1-2.4c0.8-0.6,1.9-1,2.9-0.9c0.9,0,1.8,0.2,2.7,0.6L76,20.1c-0.7-0.4-1.4-0.6-2.2-0.6
							c-0.5-0.1-1.1,0.1-1.5,0.5c-0.3,0.3-0.5,0.6-0.5,1c0,0.5,0.2,0.9,0.6,1.2c0.6,0.4,1.1,0.7,1.7,0.9c0.8,0.3,1.6,0.8,2.2,1.5
							C76.7,25.3,76.9,26,76.9,26.8"/>
						<path id="Fill-8" class="st0" d="M83.2,22.8h-2.1v4.3c0,1,0.3,1.6,1,1.6c0.3,0,0.6,0,0.8-0.1v1.5c-0.5,0.2-1,0.2-1.5,0.2
							c-0.7,0-1.3-0.2-1.7-0.7c-0.5-0.7-0.7-1.5-0.6-2.3v-4.4h-1.2v-1.5h1.3v-1.6l1.9-0.6v2.2h2.1V22.8"/>
						<path id="Fill-9" class="st0" d="M92.5,25.7c0.1,1.2-0.4,2.4-1.2,3.4c-0.8,0.9-1.9,1.4-3.1,1.4c-1.1,0-2.2-0.4-3-1.3
							c-0.8-0.9-1.2-2.1-1.2-3.3c-0.1-1.2,0.4-2.4,1.2-3.4c1.6-1.7,4.3-1.7,6-0.1c0,0,0.1,0.1,0.1,0.1
							C92.1,23.3,92.6,24.5,92.5,25.7z M90.5,25.7c0-0.7-0.1-1.5-0.5-2.1c-0.3-0.7-1-1.1-1.7-1c-0.7,0-1.4,0.4-1.7,1
							c-0.3,0.6-0.5,1.4-0.5,2.1c0,0.7,0.1,1.5,0.5,2.1c0.3,0.7,1,1.1,1.7,1c0.7,0,1.4-0.4,1.7-1C90.4,27.2,90.5,26.4,90.5,25.7z"/>
						<path id="Fill-10" class="st0" d="M98.5,23h-0.6c-0.6,0-1.2,0.3-1.5,0.8c-0.3,0.5-0.5,1.1-0.5,1.7v4.7h-1.9v-8.8h1.6l0.1,1.6
							l0,0c0.2-0.5,0.5-1,0.9-1.4c0.4-0.3,0.9-0.5,1.4-0.5h0.5L98.5,23"/>
						<path id="Fill-11" class="st0" d="M107,25.4c0,0.3,0,0.6-0.1,0.9h-5.7c0,0.7,0.3,1.5,0.8,2c0.5,0.4,1.2,0.7,1.9,0.6
							c0.8,0,1.6-0.1,2.3-0.5l0.3,1.4c-0.9,0.4-1.8,0.6-2.8,0.6c-1.2,0.1-2.3-0.4-3.1-1.2c-0.8-0.9-1.2-2.1-1.2-3.3
							c0-1.2,0.3-2.3,1-3.3c0.7-0.9,1.8-1.4,2.9-1.4c1.1,0,2.2,0.5,2.8,1.4C106.8,23.4,107.1,24.4,107,25.4z M105.2,24.8
							c0-0.5-0.1-1-0.3-1.5c-0.3-0.5-0.9-0.9-1.5-0.8c-0.6,0-1.2,0.3-1.5,0.8c-0.3,0.5-0.5,1-0.6,1.5H105.2z"/>
						<g id="Available-on-the">
							<path id="Fill-12" class="st0" d="M42.2,13.6h-0.9l-0.6-1.7h-1.9l-0.5,1.7h-1l1.9-6h1.2L42.2,13.6z M40.6,11.1l-0.5-1.5
								c-0.1-0.4-0.2-0.8-0.3-1.2l0,0c-0.1,0.4-0.1,0.8-0.2,1.2l-0.5,1.5H40.6z"/>
							<path id="Fill-13" class="st0" d="M46.9,9.3l-1.5,4.3h-0.9l-1.5-4.3h1l0.7,2.3c0.1,0.2,0.1,0.7,0.2,1l0,0
								c0.1-0.4,0.2-0.7,0.3-1l0.7-2.3H46.9"/>
							<path id="Fill-14" class="st0" d="M50.2,13.6L50.1,13l0,0c-0.3,0.4-0.7,0.6-1.2,0.6c-0.7,0-1.3-0.6-1.3-1.3
								c0-1,0.9-1.6,2.4-1.6l0,0c0-0.4-0.2-0.8-0.6-0.8c-0.1,0-0.1,0-0.2,0c-0.4,0-0.7,0.1-1,0.3l-0.3-0.7c0.4-0.3,0.9-0.4,1.4-0.3
								c1,0,1.6,0.6,1.6,1.7v1.6c0,0.4,0,0.7,0.1,1L50.2,13.6z M50.1,11.4c-1,0-1.5,0.2-1.5,0.8c0,0.6,0.2,0.7,0.6,0.7
								c0.5,0,0.9-0.4,0.9-0.9c0,0,0,0,0,0V11.4z"/>
							<path id="Fill-15" class="st0" d="M53,8.5c-0.3,0-0.6-0.3-0.6-0.6s0.3-0.6,0.6-0.6s0.6,0.3,0.6,0.6C53.6,8.2,53.4,8.5,53,8.5
								C53.1,8.5,53.1,8.5,53,8.5z M52.7,9.3h0.9v4.3h-0.9V9.3z"/>
							<polygon id="Fill-16" class="st0" points="55.2,7.3 56.2,7.3 56.2,13.6 55.2,13.6 							"/>
							<path id="Fill-17" class="st0" d="M60,13.6V13l0,0c-0.3,0.4-0.7,0.6-1.2,0.6c-0.7,0-1.3-0.6-1.3-1.3c0-1,0.9-1.6,2.4-1.6l0,0
								c0-0.4-0.2-0.8-0.6-0.8c-0.1,0-0.1,0-0.2,0c-0.4,0-0.7,0.1-1,0.3l-0.3-0.7c0.4-0.3,0.9-0.4,1.4-0.3c1,0,1.6,0.6,1.6,1.7v2.7
								H60z M59.9,11.4c-1,0-1.5,0.2-1.5,0.8c0,0.6,0.2,0.7,0.6,0.7c0.5,0,0.9-0.4,0.9-0.9c0,0,0,0,0,0V11.4z"/>
							<path id="Fill-18" class="st0" d="M64.5,13.7c-0.6,0-1.1-0.3-1.3-0.8l0,0v0.7h-0.8V7.3h0.9v2.6l0,0c0.3-0.5,0.8-0.7,1.3-0.7
								c1,0,1.7,0.9,1.7,2.2C66.5,12.6,65.7,13.6,64.5,13.7z M64.4,9.9c-0.6,0-1.1,0.5-1.1,1.1c0,0,0,0,0,0.1v0.8c0,0.6,0.5,1,1,1
								l0,0c0.7,0,1-0.6,1-1.5S65,9.9,64.4,9.9z"/>
							<polygon id="Fill-19" class="st0" points="67.8,7.3 68.7,7.3 68.7,13.6 67.8,13.6 							"/>
							<path id="Fill-20" class="st0" d="M73.7,11.6H71c-0.1,0.6,0.4,1.2,1,1.3c0.1,0,0.2,0,0.2,0c0.4,0,0.8-0.1,1.2-0.2l0.1,0.7
								c-0.4,0.2-0.9,0.3-1.4,0.2c-1.1,0.1-2-0.8-2.1-1.9c0-0.1,0-0.2,0-0.3c-0.1-1.1,0.6-2.2,1.8-2.3c0.1,0,0.1,0,0.2,0
								c1,0,1.7,0.8,1.7,2.1L73.7,11.6L73.7,11.6z M72.9,10.9c0-0.7-0.3-1.2-0.9-1.2c-0.6,0-0.9,0.5-1,1.2H72.9z"/>
							<path id="Fill-21" class="st0" d="M79.3,13.7c-1.1,0-2-0.9-2-2.1c0,0,0-0.1,0-0.1c-0.1-1.2,0.8-2.2,1.9-2.3c0,0,0.1,0,0.1,0
								c1.1,0,2,0.9,2,2.1c0,0.1,0,0.1,0,0.2c0.1,1.2-0.8,2.2-1.9,2.3C79.4,13.7,79.4,13.7,79.3,13.7z M79.3,9.9c-0.7,0-1,0.7-1,1.5
								s0.5,1.5,1,1.5c0.6,0,1-0.7,1-1.5S80,9.9,79.3,9.9z"/>
							<path id="Fill-22" class="st0" d="M86.4,13.6h-0.9v-2.6c0-0.8-0.2-1.2-0.8-1.2c-0.5,0-0.9,0.4-0.9,1c0,0,0,0,0,0.1v2.6h-0.9
								V9.2h0.8v0.7l0,0c0.3-0.5,0.8-0.7,1.3-0.7c0.9,0,1.4,0.7,1.4,1.9v2.6"/>
							<path id="Fill-23" class="st0" d="M92.5,10h-1v2.1c0,0.6,0.2,0.8,0.6,0.8h0.5v0.7c-0.2,0.1-0.5,0.1-0.7,0.1
								c-0.7,0-1.2-0.5-1.2-1.5V10H90V9.3h0.6V8.5l0.9-0.2v1h1L92.5,10"/>
							<path id="Fill-24" class="st0" d="M97.4,13.6h-0.9v-2.4c0-0.8-0.2-1.2-0.8-1.2c-0.5,0-0.9,0.4-0.9,1c0,0,0,0,0,0.1v2.6h-0.9
								V7.3h0.9v2.6l0,0c0.3-0.5,0.8-0.7,1.3-0.7c0.9,0,1.4,0.7,1.4,1.9L97.4,13.6"/>
							<path id="Fill-25" class="st0" d="M102,11.6h-2.8c-0.1,0.6,0.4,1.2,1,1.3c0.1,0,0.2,0,0.2,0c0.4,0,0.8-0.1,1.2-0.2l0.1,0.7
								c-0.4,0.2-0.9,0.3-1.4,0.2c-1.1,0.1-2-0.8-2.1-1.9c0-0.1,0-0.2,0-0.3c-0.1-1.1,0.6-2.2,1.8-2.3c0.1,0,0.1,0,0.2,0
								c1,0,1.7,0.8,1.7,2.1C102.1,11.4,102,11.5,102,11.6z M101.2,10.9c0-0.7-0.3-1.2-0.9-1.2s-0.9,0.5-1,1.2H101.2z"/>
						</g>
					</g>
				</g>
			</g>
		</g>
	</g>
</g>
</svg>
