<svg id="svg2" xmlns="http://www.w3.org/2000/svg" xmlns:xlink="http://www.w3.org/1999/xlink" width="135.3" height="39.67" viewBox="0 0 135.3 39.67">
  <defs>
    <style>
      .cls-1, .cls-2 {
        fill: #fff;
      }

      .cls-1 {
        stroke: #fff;
        stroke-miterlimit: 10;
        stroke-width: 0.16px;
      }

      .cls-3 {
        fill: url(#linear-gradient);
      }

      .cls-4 {
        fill: url(#linear-gradient-2);
      }

      .cls-5 {
        fill: url(#linear-gradient-3);
      }

      .cls-6 {
        fill: url(#linear-gradient-4);
      }
    </style>
    <linearGradient id="linear-gradient" x1="30.31" y1="916.38" x2="13.53" y2="899.6" gradientTransform="translate(-8.56 -876.29) scale(1 0.99)" gradientUnits="userSpaceOnUse">
      <stop offset="0" stop-color="#00a0ff"/>
      <stop offset="0.01" stop-color="#00a1ff"/>
      <stop offset="0.26" stop-color="#00beff"/>
      <stop offset="0.51" stop-color="#00d2ff"/>
      <stop offset="0.76" stop-color="#00dfff"/>
      <stop offset="1" stop-color="#00e3ff"/>
    </linearGradient>
    <linearGradient id="linear-gradient-2" x1="42.37" y1="905.17" x2="18.17" y2="905.17" gradientTransform="translate(-8.56 -876.29) scale(1 0.99)" gradientUnits="userSpaceOnUse">
      <stop offset="0" stop-color="#ffe000"/>
      <stop offset="0.41" stop-color="#ffbd00"/>
      <stop offset="0.78" stop-color="orange"/>
      <stop offset="1" stop-color="#ff9c00"/>
    </linearGradient>
    <linearGradient id="linear-gradient-3" x1="25" y1="911.13" x2="2.24" y2="888.38" gradientTransform="translate(-8.56 -876.29) scale(1 0.99)" gradientUnits="userSpaceOnUse">
      <stop offset="0" stop-color="#ff3a44"/>
      <stop offset="1" stop-color="#c31162"/>
    </linearGradient>
    <linearGradient id="linear-gradient-4" x1="7.57" y1="916.62" x2="17.73" y2="906.46" gradientTransform="translate(-8.56 -876.29) scale(1 0.99)" gradientUnits="userSpaceOnUse">
      <stop offset="0" stop-color="#32a071"/>
      <stop offset="0.07" stop-color="#2da771"/>
      <stop offset="0.48" stop-color="#15cf74"/>
      <stop offset="0.8" stop-color="#06e775"/>
      <stop offset="1" stop-color="#00f076"/>
    </linearGradient>
  </defs>
  <title>google-play</title>
  <g id="g10">
    <g id="g12">
      <path id="path14" d="M130.31,39.63H5a5,5,0,0,1-5-5V5A5,5,0,0,1,5,0h125.3a5,5,0,0,1,5,5V34.69A5,5,0,0,1,130.31,39.63Z" transform="translate(-0.01 0.04)"/>
      <g id="g18">
        <path id="path20" class="cls-1" d="M47.53,10.15a2.69,2.69,0,0,1-.74,2,3,3,0,0,1-2.21.88,3.06,3.06,0,0,1-2.21-.89,3,3,0,0,1-.91-2.22,3.07,3.07,0,0,1,3.11-3.13,3.18,3.18,0,0,1,1.2.27,2.44,2.44,0,0,1,1,.63l-.52.52a2,2,0,0,0-1.65-.7A2.31,2.31,0,0,0,43,8.17a2.27,2.27,0,0,0-.69,1.71A2.28,2.28,0,0,0,43,11.6a2.33,2.33,0,0,0,1.64.66,2.3,2.3,0,0,0,1.68-.66,1.85,1.85,0,0,0,.5-1.2H44.57V9.69h2.91A2,2,0,0,1,47.53,10.15Z" transform="translate(-0.01 0.04)"/>
      </g>
      <g id="g22">
        <path id="path24" class="cls-1" d="M52.15,7.69H49.41V9.55h2.47v.72H49.41v1.88h2.74v.73H48.64V6.94h3.51Z" transform="translate(-0.01 0.04)"/>
      </g>
      <g id="g26">
        <path id="path28" class="cls-1" d="M55.41,12.88h-.77V7.69H53V6.94h4.13v.75H55.41Z" transform="translate(-0.01 0.04)"/>
      </g>
      <g id="g30">
        <path id="path32" class="cls-1" d="M60.08,12.88V6.94h.77v5.94Z" transform="translate(-0.01 0.04)"/>
      </g>
      <g id="g34">
        <path id="path36" class="cls-1" d="M64.28,12.88h-.77V7.69H61.83V6.94H66v.75H64.28Z" transform="translate(-0.01 0.04)"/>
      </g>
      <g id="g38">
        <path id="path40" class="cls-1" d="M73.77,12.12a3.15,3.15,0,0,1-4.41,0,3,3,0,0,1-.89-2.21,3,3,0,0,1,.9-2.22,3.14,3.14,0,0,1,4.4,0,3,3,0,0,1,.89,2.2A3,3,0,0,1,73.77,12.12Zm-3.84-.5a2.31,2.31,0,0,0,3.94-1.71,2.31,2.31,0,1,0-4.61,0A2.32,2.32,0,0,0,70,11.62Z" transform="translate(-0.01 0.04)"/>
      </g>
      <g id="g42">
        <path id="path44" class="cls-1" d="M75.77,12.88V6.94h.94l2.92,4.62h0V6.94h.77v5.94h-.81L76.52,8h0v4.85Z" transform="translate(-0.01 0.04)"/>
      </g>
      <path id="path46" class="cls-2" d="M68.3,21.55a4.18,4.18,0,1,0,.13,0Zm0,6.77a2.56,2.56,0,1,1,2.41-2.71q0,.08,0,.16a2.45,2.45,0,0,1-2.35,2.55ZM59,21.55a4.17,4.17,0,1,0,.13,0H59Zm0,6.77a2.56,2.56,0,1,1,2.4-2.71q0,.08,0,.16A2.45,2.45,0,0,1,59,28.32H59ZM47.86,22.85v1.79h4.33a3.7,3.7,0,0,1-1,2.25,4.47,4.47,0,0,1-3.34,1.31,4.76,4.76,0,0,1,0-9.51A4.62,4.62,0,0,1,51.11,20l1.28-1.28a6.35,6.35,0,0,0-4.54-1.8,6.68,6.68,0,0,0-6.72,6.55A6.68,6.68,0,0,0,47.85,30a6.09,6.09,0,0,0,4.62-1.84,6.38,6.38,0,0,0,1.47-5.3Zm45.41,1.38a3.93,3.93,0,0,0-7.66,1.31q0,.11,0,.22A4.15,4.15,0,0,0,89.71,30h.14A4.24,4.24,0,0,0,93.4,28.1L92,27.1a2.44,2.44,0,0,1-2.1,1.17,2.17,2.17,0,0,1-2.08-1.22l5.7-2.36Zm-5.81,1.4a2.32,2.32,0,0,1,2.17-2.46h.06a1.66,1.66,0,0,1,1.59.89Zm-4.64,4.06h1.87V17.34H82.82Zm-3.05-7.2h-.06a3,3,0,0,0-2.24-.94,4.22,4.22,0,0,0,0,8.43,2.93,2.93,0,0,0,2.24-1h.06v.6a2.17,2.17,0,0,1-2.28,2.48,2.36,2.36,0,0,1-2.15-1.5l-1.63.67a4.07,4.07,0,0,0,3.78,2.49c2.2,0,4.05-1.28,4.05-4.39V21.81H79.77Zm-2.14,5.83a2.56,2.56,0,0,1,0-5.11,2.39,2.39,0,0,1,2.28,2.49v.08a2.37,2.37,0,0,1-2.19,2.53h-.09Zm24.44-11H97.56V29.69h1.87V25H102a3.85,3.85,0,1,0,.39-7.69H102Zm0,6H99.43V19.06h2.66a2.13,2.13,0,0,1,0,4.25h0Zm11.56-1.78a3.51,3.51,0,0,0-3.33,1.9l1.66.69a1.78,1.78,0,0,1,1.71-.91,1.8,1.8,0,0,1,2,1.58h0v.13a4.15,4.15,0,0,0-2-.48c-1.79,0-3.61,1-3.61,2.79a2.88,2.88,0,0,0,3,2.74h.09a2.65,2.65,0,0,0,2.39-1.21h.06v1h1.81V25c0-2.2-1.66-3.43-3.78-3.43Zm-.23,6.79c-.61,0-1.46-.3-1.46-1,0-1,1.06-1.33,2-1.33a3.39,3.39,0,0,1,1.71.42,2.26,2.26,0,0,1-2.22,1.9ZM124,21.81l-2.15,5.37h-.06l-2.22-5.37h-2l3.34,7.5L119,33.48h2l5.14-11.68Zm-16.82,7.88h1.87V17.34h-1.87Z" transform="translate(-0.01 0.04)"/>
      <g id="g48">
        <path id="path64" class="cls-3" d="M10.46,7.47A2,2,0,0,0,10,8.86V30.78a2,2,0,0,0,.46,1.39l.07.07L23,20v-.27L10.53,7.4Z" transform="translate(-0.01 0.04)"/>
      </g>
      <g id="g66">
        <path id="path78" class="cls-4" d="M27.09,24.06,23,20v-.28l4.14-4.09.09.05,4.9,2.76c1.4.78,1.4,2.07,0,2.86L27.18,24Z" transform="translate(-0.01 0.04)"/>
      </g>
      <g id="g80">
        <path id="path88" class="cls-5" d="M27.19,24,23,19.82,10.46,32.17a1.65,1.65,0,0,0,2.08.06L27.18,24" transform="translate(-0.01 0.04)"/>
      </g>
      <g id="g90">
        <path id="path104" class="cls-6" d="M27.19,15.63,12.54,7.41a1.65,1.65,0,0,0-2.08.06L23,19.82Z" transform="translate(-0.01 0.04)"/>
      </g>
    </g>
  </g>
</svg>
