<?xml version="1.0" encoding="utf-8"?>
<!-- Generator: Adobe Illustrator 18.1.0, SVG Export Plug-In . SVG Version: 6.00 Build 0)  -->
<svg version="1.1" xmlns="http://www.w3.org/2000/svg" xmlns:xlink="http://www.w3.org/1999/xlink" x="0px" y="0px"
	 viewBox="0 0 60 60" enable-background="new 0 0 60 60" xml:space="preserve">
<g id="artwork">
	<path fill="#FFFFFF" d="M58.7,20.2c-0.5-5.6-3.8-11-8.4-13.9C47.9,4.8,44.8,4,41.6,4c-4.9,0-9,1.7-11.8,4.7
		c-3-2.9-6.9-4.6-11.1-4.6c-2.5,0-5,0.6-7.2,1.8c-5.6,3-9.1,8.2-9.8,14.3C1.2,26.1,3.5,32,7.8,35.6C8,35.8,28.1,52.6,30.6,52.6
		c3,0,21.8-17.3,22-17.4C57,31.1,59.2,25.7,58.7,20.2z M30.6,46.2c-3.8-2.9-14.3-11-19-15.1c-2.8-2.4-4.3-6.3-3.9-10.3
		c0.3-2.4,1.5-6.9,6.7-9.8c1.3-0.7,2.8-1.1,4.4-1.1c3.5,0,6.7,1.9,8.7,5.1c-0.8,1.9-1.3,3.9-1.3,6.1c0,8.4,6.8,15.3,15.3,15.3
		c0.3,0,0.6,0,1,0C37.4,40.8,32.8,44.5,30.6,46.2z M53.7,22.3c0,0.4-0.4,0.8-0.8,0.8l-7.8,0l0,7.8c0,0.4-0.4,0.8-0.8,0.8l-3.8,0
		c-0.2,0-0.4-0.1-0.6-0.2c-0.2-0.2-0.3-0.4-0.3-0.6l0-7.8l-7.8,0c-0.4,0-0.8-0.4-0.8-0.8l0-3.8c0-0.4,0.4-0.8,0.8-0.8l7.8,0l0-7.8
		C39.6,9.4,40,9,40.4,9l3.8,0C44.7,9,45,9.4,45,9.8l0,7.8l7.8,0c0.4,0.1,0.8,0.5,0.8,0.9L53.7,22.3z"/>
</g>
<g id="naming">
</g>
<g id="LOCKED" display="none">
	<g display="inline">
		<text transform="matrix(1 0 0 1 9.1439 47.4043)" fill="#FFFFFF" font-family="'TheSans-B3Light'" font-size="8.4441">Home Page</text>
	</g>
</g>
</svg>
