<?xml version="1.0" encoding="utf-8"?>
<!-- Generator: Adobe Illustrator 18.1.0, SVG Export Plug-In . SVG Version: 6.00 Build 0)  -->
<svg version="1.1" xmlns="http://www.w3.org/2000/svg" xmlns:xlink="http://www.w3.org/1999/xlink" x="0px" y="0px"
	 viewBox="0 0 60 60" enable-background="new 0 0 60 60" xml:space="preserve">
<g id="artwork">
	<g>
		<path fill="#FFFFFF" d="M45,51.7c0,1.5-1.2,2.6-2.6,2.6h-6.2c-1.5,0-2.6-1.2-2.6-2.6V31.2c0-1.5,1.2-2.6,2.6-2.6h6.2
			c1.5,0,2.6,1.2,2.6,2.6V51.7z M25.5,33.3c0,0.6-0.5,1.1-1.1,1.1h-3.5c-0.6,0-1.1-0.5-1.1-1.1v-3.7c0-0.6,0.5-1.1,1.1-1.1h3.5
			c0.6,0,1.1,0.5,1.1,1.1V33.3z M25.5,39.9c0,0.6-0.5,1.1-1.1,1.1h-3.5c-0.6,0-1.1-0.5-1.1-1.1v-3.7c0-0.6,0.5-1.1,1.1-1.1h3.5
			c0.6,0,1.1,0.5,1.1,1.1V39.9z M18.8,33.3c0,0.6-0.5,1.1-1.1,1.1h-3.5c-0.6,0-1.1-0.5-1.1-1.1v-3.7c0-0.6,0.5-1.1,1.1-1.1h3.5
			c0.6,0,1.1,0.5,1.1,1.1V33.3z M18.8,39.9c0,0.6-0.5,1.1-1.1,1.1h-3.5c-0.6,0-1.1-0.5-1.1-1.1v-3.7c0-0.6,0.5-1.1,1.1-1.1h3.5
			c0.6,0,1.1,0.5,1.1,1.1V39.9z M58.6,25L43.2,12.8V6.3c0-0.6-0.5-1.1-1.1-1.1h-4.9c-0.6,0-1.1,0.5-1.1,1.1v0.9l-5.3-4.2
			c-0.7-0.7-1.8-0.7-2.4,0l-27.7,22c-0.3,0.3-2.2,2.8,1.9,2.8l5.9,0l0,27.5c0,0.9,0.8,1.7,1.7,1.7h38.7c0.9,0,1.7-0.8,1.7-1.7
			l0-27.5l6.1,0C59.9,27.8,58.9,25.3,58.6,25"/>
		<path fill="#FFFFFF" d="M45,51.7c0,1.5-1.2,2.6-2.6,2.6h-6.2c-1.5,0-2.6-1.2-2.6-2.6V31.2c0-1.5,1.2-2.6,2.6-2.6h6.2
			c1.5,0,2.6,1.2,2.6,2.6V51.7z M25.5,33.3c0,0.6-0.5,1.1-1.1,1.1h-3.5c-0.6,0-1.1-0.5-1.1-1.1v-3.7c0-0.6,0.5-1.1,1.1-1.1h3.5
			c0.6,0,1.1,0.5,1.1,1.1V33.3z M25.5,39.9c0,0.6-0.5,1.1-1.1,1.1h-3.5c-0.6,0-1.1-0.5-1.1-1.1v-3.7c0-0.6,0.5-1.1,1.1-1.1h3.5
			c0.6,0,1.1,0.5,1.1,1.1V39.9z M18.8,33.3c0,0.6-0.5,1.1-1.1,1.1h-3.5c-0.6,0-1.1-0.5-1.1-1.1v-3.7c0-0.6,0.5-1.1,1.1-1.1h3.5
			c0.6,0,1.1,0.5,1.1,1.1V33.3z M18.8,39.9c0,0.6-0.5,1.1-1.1,1.1h-3.5c-0.6,0-1.1-0.5-1.1-1.1v-3.7c0-0.6,0.5-1.1,1.1-1.1h3.5
			c0.6,0,1.1,0.5,1.1,1.1V39.9z M58.6,25L43.2,12.8V6.3c0-0.6-0.5-1.1-1.1-1.1h-4.9c-0.6,0-1.1,0.5-1.1,1.1v0.9l-5.3-4.2
			c-0.7-0.7-1.8-0.7-2.4,0l-27.7,22c-0.3,0.3-2.2,2.8,1.9,2.8l5.9,0l0,27.5c0,0.9,0.8,1.7,1.7,1.7h38.7c0.9,0,1.7-0.8,1.7-1.7
			l0-27.5l6.1,0C59.9,27.8,58.9,25.3,58.6,25z"/>
	</g>
</g>
<g id="naming">
</g>
<g id="LOCKED" display="none">
</g>
</svg>
