<svg id="Layer_1" data-name="Layer 1" xmlns="http://www.w3.org/2000/svg" viewBox="0 0 160 160"><defs><style>.cls-1,.cls-2,.cls-3{fill:none;stroke-linejoin:round;stroke-width:6px;}.cls-1,.cls-3{stroke:#0071ce;}.cls-2{stroke:#eba900;}.cls-2,.cls-3{stroke-linecap:round;}.cls-4{fill:#0071ce;}</style></defs><title>icon-</title><circle class="cls-1" cx="116.59" cy="116.59" r="39.91"/><path class="cls-2" d="M107.34,125.37a9.25,9.25,0,1,0,9.25-9.25,9.26,9.26,0,1,1,9.25-9.25"/><line class="cls-2" x1="116.59" y1="134.62" x2="116.59" y2="140.79"/><line class="cls-2" x1="116.59" y1="91.45" x2="116.59" y2="97.6"/><polyline class="cls-3" points="63.37 136.54 3.5 136.54 3.5 3.5 129.89 3.5 129.89 63.37"/><path class="cls-4" d="M27.43,9.5V20.78h-1.3V9.5h1.3m6-6H20.13V26.78h13.3V3.5Z"/><path class="cls-4" d="M54,9.5V20.78h-1.3V9.5H54m6-6H46.74V26.78H60V3.5Z"/><path class="cls-4" d="M107.26,9.5V20.78H106V9.5h1.3m6-6H100V26.78h13.3V3.5Z"/><path class="cls-4" d="M80.65,9.5V20.78h-1.3V9.5h1.3m6-6H73.35V26.78h13.3V3.5Z"/></svg>