<?xml version="1.0" encoding="utf-8"?>
<!-- Generator: Adobe Illustrator 18.0.0, SVG Export Plug-In . SVG Version: 6.00 Build 0)  -->
<!DOCTYPE svg PUBLIC "-//W3C//DTD SVG 1.1//EN" "http://www.w3.org/Graphics/SVG/1.1/DTD/svg11.dtd">
<svg version="1.1" xmlns="http://www.w3.org/2000/svg" xmlns:xlink="http://www.w3.org/1999/xlink" x="0px" y="0px"
	 viewBox="0 0 160 160" enable-background="new 0 0 160 160" xml:space="preserve">
<g id="Layer_2" display="none">
	<rect x="-23.3" y="-29" display="inline" width="208.3" height="208"/>
</g>
<g id="Layer_1">
	<g>
		<g>
			<path fill="none" stroke="#FFFFFF" stroke-width="6" stroke-linecap="round" stroke-linejoin="round" stroke-miterlimit="10" d="
				M156.7,116.7c0,22.1-17.9,40-40,40s-40-17.9-40-40c0-22.1,17.9-40,40-40S156.7,94.6,156.7,116.7z"/>
			
				<polyline fill="none" stroke="#FFFFFF" stroke-width="6" stroke-linecap="round" stroke-linejoin="round" stroke-miterlimit="10" points="
				136.7,103.3 110,130 96.7,116.7 			"/>
		</g>
		<g>
			
				<line fill="none" stroke="#FFFFFF" stroke-width="6" stroke-linecap="round" stroke-linejoin="round" stroke-miterlimit="10" x1="23.3" y1="43.3" x2="53.3" y2="43.3"/>
			
				<line fill="none" stroke="#FFFFFF" stroke-width="6" stroke-linecap="round" stroke-linejoin="round" stroke-miterlimit="10" x1="23.3" y1="63.3" x2="76.7" y2="63.3"/>
			
				<line fill="none" stroke="#FFFFFF" stroke-width="6" stroke-linecap="round" stroke-linejoin="round" stroke-miterlimit="10" x1="23.3" y1="83.3" x2="63.3" y2="83.3"/>
			
				<line fill="none" stroke="#FFFFFF" stroke-width="6" stroke-linecap="round" stroke-linejoin="round" stroke-miterlimit="10" x1="23.3" y1="103.3" x2="56.7" y2="103.3"/>
			<g>
				
					<polyline fill="none" stroke="#FFFFFF" stroke-width="6" stroke-linecap="round" stroke-linejoin="round" stroke-miterlimit="10" points="
					70,143.3 3.3,143.3 3.3,3.3 76.7,3.3 110,36.7 110,63.3 				"/>
				
					<polyline fill="none" stroke="#FFFFFF" stroke-width="6" stroke-linecap="round" stroke-linejoin="round" stroke-miterlimit="10" points="
					76.7,3.3 76.7,36.7 110,36.7 				"/>
			</g>
		</g>
	</g>
	<g display="none">
		
			<line display="inline" fill="none" stroke="#FFFFFF" stroke-width="6" stroke-linecap="round" stroke-linejoin="round" stroke-miterlimit="10" x1="3.3" y1="156.7" x2="156.7" y2="156.7"/>
		
			<rect x="10" y="123.3" display="inline" fill="none" stroke="#FFFFFF" stroke-width="6" stroke-linecap="round" stroke-linejoin="round" stroke-miterlimit="10" width="20" height="33.3"/>
		
			<rect x="50" y="90" display="inline" fill="none" stroke="#FFFFFF" stroke-width="6" stroke-linecap="round" stroke-linejoin="round" stroke-miterlimit="10" width="20" height="66.7"/>
		
			<rect x="90" y="103.3" display="inline" fill="none" stroke="#FFFFFF" stroke-width="6" stroke-linecap="round" stroke-linejoin="round" stroke-miterlimit="10" width="20" height="53.3"/>
		
			<rect x="130" y="56.7" display="inline" fill="none" stroke="#FFFFFF" stroke-width="6" stroke-linecap="round" stroke-linejoin="round" stroke-miterlimit="10" width="20" height="100"/>
		
			<path display="inline" fill="none" stroke="#FFFFFF" stroke-width="6" stroke-linecap="round" stroke-linejoin="round" stroke-miterlimit="10" d="
			M26.7,76.7c0,3.7-3,6.7-6.7,6.7c-3.7,0-6.7-3-6.7-6.7c0-3.7,3-6.7,6.7-6.7C23.7,70,26.7,73,26.7,76.7z"/>
		
			<path display="inline" fill="none" stroke="#FFFFFF" stroke-width="6" stroke-linecap="round" stroke-linejoin="round" stroke-miterlimit="10" d="
			M66.7,43.3c0,3.7-3,6.7-6.7,6.7c-3.7,0-6.7-3-6.7-6.7c0-3.7,3-6.7,6.7-6.7C63.7,36.7,66.7,39.6,66.7,43.3z"/>
		
			<path display="inline" fill="none" stroke="#FFFFFF" stroke-width="6" stroke-linecap="round" stroke-linejoin="round" stroke-miterlimit="10" d="
			M106.7,56.7c0,3.7-3,6.7-6.7,6.7c-3.7,0-6.7-3-6.7-6.7c0-3.7,3-6.7,6.7-6.7C103.7,50,106.7,53,106.7,56.7z"/>
		
			<path display="inline" fill="none" stroke="#FFFFFF" stroke-width="6" stroke-linecap="round" stroke-linejoin="round" stroke-miterlimit="10" d="
			M146.7,10c0,3.7-3,6.7-6.7,6.7c-3.7,0-6.7-3-6.7-6.7c0-3.7,3-6.7,6.7-6.7C143.7,3.3,146.7,6.3,146.7,10z"/>
		
			<line display="inline" fill="none" stroke="#FFFFFF" stroke-width="6" stroke-linecap="round" stroke-linejoin="round" stroke-miterlimit="10" x1="25.1" y1="72.4" x2="54.9" y2="47.6"/>
		
			<line display="inline" fill="none" stroke="#FFFFFF" stroke-width="6" stroke-linejoin="round" stroke-miterlimit="10" x1="66.3" y1="45.4" x2="93.9" y2="54.6"/>
		
			<line display="inline" fill="none" stroke="#FFFFFF" stroke-width="6" stroke-linecap="round" stroke-linejoin="round" stroke-miterlimit="10" x1="135.7" y1="15.1" x2="104.3" y2="51.6"/>
	</g>
</g>
</svg>
