<svg xmlns="http://www.w3.org/2000/svg" width="1175.79" height="371.14" viewBox="0 0 1175.79 371.14">
  <defs>
    <style>
      .a {
        fill: #fff;
      }

      .b {
        fill: #c00;
      }
    </style>
  </defs>
  <title>Asset 1</title>
  <g>
    <path class="a" d="M498.78,147.72l-13.13-27.23h-9.08v27.23h-22V67h36.11c18.92,0,31.47,7.14,31.47,26.26a24,24,0,0,1-14.48,23.56l15.83,30.7H498.78Zm-8.69-62.56H476.57v17.57h13.32c7.34,0,10.05-3.28,10.05-9.08.19-5.6-2.71-8.49-9.85-8.49Z"/>
    <path class="a" d="M540.68,147.72V67h61.79V85.74H562.69V96.36h24.14v18.53H562.89V128.8h40.35v18.73Z"/>
    <path class="a" d="M649,147.72H622.75V67h28.19c25.3,0,41.52,9.65,41.52,40S677.59,147.72,649,147.72Zm2.12-61.6h-5.4V128.6h4.82c13.91,0,19.31-5.21,19.31-21.24-.19-15.06-5-21.24-18.73-21.24Z"/>
    <path class="a" d="M801,147.72V115.86h-25.1v31.86h-22.6V67h22.79V96.36h25.1V67H824v80.71Z"/>
    <path class="a" d="M897.72,147.72l-4.44-14.48H869.34l-4.44,14.48H841L870.3,67h22.59l29.36,80.71Zm-11.2-37.27c-2.89-10.42-4-14.67-5.21-20.08-1,5.41-2.32,9.85-5.22,20.08l-1.54,5.22h13.32Z"/>
    <path class="a" d="M969.56,86.51v61.21h-22.4V86.51h-22.6V67h67.59v19.5Z"/>
    <path class="a" d="M1014.35,87.28a10.1,10.1,0,0,1-10.23-10.43c.19-5.79,4.63-10.42,10.43-10.23a10.43,10.43,0,0,1,.19,20.85C1014.74,87.28,1014.55,87.28,1014.35,87.28Zm0-19.31a8.79,8.79,0,1,0,8.89,8.88,8.46,8.46,0,0,0-8.31-8.69.73.73,0,0,1-.58-.19Zm2.51,9.66,2.32,4.82h-2.32L1014.74,78h-2.12v4.44h-1.93V71.06h4.82a3.41,3.41,0,0,1,3.67,2.9v.58a3.3,3.3,0,0,1-2.32,3.09Zm-1.35-4.83h-2.89v3.28h2.89c1,0,1.74-.38,1.74-1.54a1.52,1.52,0,0,0-1.54-1.55.19.19,0,0,0-.2-.19Z"/>
    <path class="a" d="M535.85,296l-10.62-31.67H473.87L463.05,296H448.76L492,171.86h15.25l43.26,124.36Zm-28.58-85c-2.89-8.11-6.37-19.31-7.72-24.72-1.16,5-5,16.22-7.72,24.72l-13.71,40.55h42.67Z"/>
    <path class="a" d="M652.68,296l-54.26-85c-2.71-4.25-7.34-12.36-8.89-15.64V296H576V171.86h13.51l53.88,86.7c2.7,4.25,7.34,12.36,8.88,15.64V171.86h13.33V296.22Z"/>
    <path class="a" d="M733.39,298.15a59.26,59.26,0,0,1-41.71-17.38l9.27-9.85a47.76,47.76,0,0,0,33,14.87c16.61,0,26.84-8.11,26.84-21.24,0-11.59-6.95-18.15-29.54-26.26-27-9.66-35.92-18.35-35.92-36.31,0-19.69,15.64-31.86,38.82-31.86A55.41,55.41,0,0,1,772,183.45l-8.88,10.81a43.13,43.13,0,0,0-29.54-11.59c-17,0-24.14,8.5-24.14,18.35s4.63,16.22,29.54,25.1c27.62,9.85,36.11,19.12,36.11,37.65C774.72,282.89,759.46,298.15,733.39,298.15Z"/>
    <path class="a" d="M804.26,296V171.86h13.91V296.22Z"/>
    <path class="a" d="M896.37,296H852V171.86h45.38c19.69,0,33.79,9.85,33.79,31.09a25.35,25.35,0,0,1-18,25.49,29.58,29.58,0,0,1,23.75,31.09C936.73,283.86,922.44,296,896.37,296Zm.19-111.61H865.47v38.81H895.4c15.45,0,21.44-8.88,21.44-19.69S910.47,184.41,896.56,184.41Zm0,51.17H865.67v47.89h31.67c18.73,0,25.68-9.27,25.68-23.36C922.83,244.46,912.59,235.58,896.56,235.58Z"/>
    <path class="a" d="M963,296V171.86h13.9V283.47h61.41V296Z"/>
    <path class="a" d="M1065,296V171.86h75.11v12.55h-61v39h35.53v12.74H1079v47.31h64.11V296Z"/>
    <path class="a" d="M1165.17,192.91a10.62,10.62,0,1,1,10.62-10.82,10.4,10.4,0,0,1-10,10.82Zm0-19.89a8.86,8.86,0,0,0-8.89,8.88,9,9,0,0,0,8.89,8.88,8.85,8.85,0,0,0,8.88-8.88v-.19c.19-4.64-3.86-8.5-8.88-8.69Zm2.51,10,2.51,5h-2.13l-2.31-4.44h-2.32v4.44h-1.93V176.3h5a3.61,3.61,0,0,1,3.86,2.9v.58a3.38,3.38,0,0,1-2.12,3.47Zm-1.36-5h-3.09v3.28h3.09c1.16,0,1.94-.58,1.94-1.74a1.86,1.86,0,0,0-1.55-1.73.6.6,0,0,1-.39.19Z"/>
    <circle class="b" cx="185.57" cy="185.57" r="185.57"/>
    <path class="a" d="M274.2,259.14l-74-177.84a12.07,12.07,0,0,0-11.39-7.92,12.31,12.31,0,0,0-11.78,7.92L96,276.33h27.81L155.83,196l95.78,77.43a15.51,15.51,0,0,0,10.23,4.44,13.19,13.19,0,0,0,13.52-12.94v-.38A26.83,26.83,0,0,0,274.2,259.14ZM188.85,113.35l48.08,118.56-72.6-57.15Z"/>
  </g>
</svg>
