<?xml version="1.0" encoding="utf-8"?>
<!-- Generator: Adobe Illustrator 16.0.0, SVG Export Plug-In . SVG Version: 6.00 Build 0)  -->
<!DOCTYPE svg PUBLIC "-//W3C//DTD SVG 1.1//EN" "http://www.w3.org/Graphics/SVG/1.1/DTD/svg11.dtd">
<svg version="1.1" id="Layer_1" xmlns="http://www.w3.org/2000/svg" xmlns:xlink="http://www.w3.org/1999/xlink" x="0px" y="0px"
	  viewBox="0 0 60 60" enable-background="new 0 0 60 60" xml:space="preserve">
<g>
	<path fill="#FFFFFF" d="M46.405,26.761c0.245-0.211-0.806,3.438-3.696,3.289c-3.129-0.161-4.144-3.467-3.611-4.978
		c1.042-2.972,2.41-2.892,4.336-2.489c0.241,1.045-0.24,1.364-0.801,1.768c-0.562,0.399-0.562,1.361-0.159,2.088
		C42.87,27.161,44.802,28.122,46.405,26.761z M1.547,33.88c0.475,0.473,1.238,0.64,1.8,0.64c0.297,0,0.569-0.043,0.803-0.119
		c0.194,0.896,0.462,1.908,1.325,1.993l0.122,0.006c0.429,0,0.782-0.217,1.063-0.501c0.262,0.384,0.706,0.679,1.478,0.734
		l1.216,0.099c-0.004,0.091-0.015,0.202-0.042,0.341c-0.019,0.124-0.485,3.166,2.955,7.283c3.323,3.966,5.563,5.39,5.659,5.452
		c0.71,0.441,1.327,1.568,1.314,2.406l-0.031,2.546c-0.01,0.691,0.251,1.34,0.736,1.831c0.485,0.49,1.133,0.761,1.82,0.761h3.192
		c1.412,0,2.592-1.021,2.621-2.273c0.014-0.452,0.402-0.613,0.761-0.613c0.114,0,0.235,0.015,0.357,0.048
		c0.095,0.022,0.126,0.03,2.774,0.03c2.608,0,3.521-0.308,3.619-0.34c0.308-0.111,0.57-0.091,0.715,0.06
		c0.113,0.121,0.17,0.328,0.162,0.58l-0.006,0.145c-0.029,0.691,0.219,1.345,0.693,1.838c0.475,0.496,1.119,0.771,1.813,0.771h2.711
		c0.689,0,1.334-0.274,1.808-0.771c0.475-0.495,0.719-1.146,0.693-1.841l-0.082-1.912c-0.038-0.856,0.402-1.523,0.716-1.602
		l0.176-0.042l4.061-4.061c3.846-3.847,4.051-5.354,4.024-5.719c-0.026-0.338,0.083-0.658,0.304-0.901
		c0.217-0.244,0.523-0.384,0.862-0.395l1.748-0.05c0.693-0.019,1.327-0.309,1.78-0.818c0.455-0.513,0.67-1.175,0.607-1.866
		c0-0.024-0.221-2.538-0.068-4.385c0.161-1.911,0.293-4.321,0.297-4.347c0.035-0.671-0.189-1.298-0.631-1.769
		c-0.475-0.503-1.15-0.77-1.883-0.716l-2.246,0.146c-0.68,0-1.293-0.549-1.367-1.226l-0.026-0.256l-5.116-4.28
		c-0.61-0.738-1.258-2.113-1.426-3.035c-0.34-1.889-0.606-5.261,0.15-6.266c0.576-0.774,0.508-1.316,0.35-1.637
		c-0.122-0.243-0.448-0.656-1.271-0.656c-0.815,0-1.777,0.407-2.447,1.036c-0.628,0.593-2.07,2.41-3.377,4.186
		c-0.951,1.287-1.832,2.555-2.282,3.302c-0.181-0.137-0.408-0.302-0.685-0.485c-0.281,0.341-0.582,0.658-0.904,0.96
		c-1.762,1.671-4.144,2.703-6.76,2.703c-2.716,0-5.182-1.103-6.965-2.883c-0.32-0.32-0.613-0.667-0.885-1.025
		c-0.4,0.195-0.772,0.41-1.133,0.64c-1.167,0.73-2.182,1.617-3.313,2.61c-4.259,3.741-5.622,8.923-5.675,9.142
		c-0.097,0.365-0.21,0.593-0.297,0.712l-1.358-0.272c-0.741-0.148-1.162,0.1-1.442,0.405c-0.287-0.277-0.73-0.417-1.335-0.417
		c-0.623,0-1.04,0.545-1.412,1.025c-0.107,0.148-0.276,0.365-0.369,0.439c-0.375,0.091-0.604,0.359-0.755,0.538
		c-0.019,0.025-0.045,0.054-0.068,0.079c-0.782-0.428-1.637-0.064-1.923,0.627C1.057,32.982,1.172,33.502,1.547,33.88z"/>
	<path fill="#FFFFFF" d="M31.853,12.75c0-0.708-0.324-2.329-3.17-2.771l0.014-2.955c0.976,0.281,1.455,1.053,1.482,1.103
		c0.186,0.319,0.596,0.429,0.917,0.247c0.321-0.186,0.433-0.594,0.249-0.92c-0.035-0.066-0.869-1.479-2.64-1.808l0.004-0.58
		c0-0.369-0.297-0.675-0.669-0.675c-0.004,0-0.004,0-0.004,0c-0.37,0-0.673,0.297-0.677,0.669v0.573
		c-0.797,0.132-1.556,0.501-2.058,1.031c-0.501,0.531-0.73,1.181-0.663,1.887c0.134,1.403,1.038,2.272,2.685,2.601l-0.017,2.985
		c-0.902-0.245-1.546-0.827-1.708-1.046c-0.089-0.265-0.343-0.456-0.638-0.456c-0.374,0-0.673,0.304-0.673,0.675
		c0,0.688,1.409,1.878,3.011,2.195l-0.008,1.084c0,0.373,0.301,0.677,0.671,0.677h0.002c0.372,0,0.67-0.3,0.675-0.671l0.006-1.036
		c0.922-0.104,1.801-0.487,2.406-1.063C31.576,13.99,31.853,13.388,31.853,12.75z M25.979,8.423
		c-0.029-0.315,0.07-0.586,0.303-0.834c0.254-0.267,0.644-0.473,1.067-0.582l-0.015,2.768C26.253,9.508,26.035,8.976,25.979,8.423z
		 M30.119,13.521c-0.355,0.345-0.894,0.582-1.467,0.68l0.019-2.86c0.863,0.163,1.839,0.536,1.839,1.409
		C30.509,13.08,30.296,13.353,30.119,13.521z M36.045,11.021c0,4.349-3.521,7.869-7.868,7.869c-4.348,0-7.869-3.521-7.869-7.869
		c0-4.344,3.521-7.866,7.869-7.866C32.523,3.154,36.045,6.677,36.045,11.021z"/>
</g>
</svg>
