<svg id="Layer_1" data-name="Layer 1" xmlns="http://www.w3.org/2000/svg" viewBox="0 0 160 160"><defs><style>.cls-1,.cls-2,.cls-3{fill:none;stroke-linejoin:round;stroke-width:6.65px;}.cls-1{stroke:#eba900;}.cls-1,.cls-2{stroke-linecap:round;}.cls-2,.cls-3{stroke:#0071ce;}</style></defs><title>icon-</title><path class="cls-1" d="M126.57,156.5c11.12-8.08,29.93-25.14,29.93-37.9,0-10.34-7.54-16.53-14.82-16.53-8.1,0-11.11,5.59-15.11,12.2-4-6.61-7-12.2-15.12-12.2-7.28,0-14.82,6.19-14.82,16.53,0,12.76,18.81,29.82,29.94,37.9Z"/><line class="cls-2" x1="83.33" y1="96.63" x2="83.33" y2="77.98"/><path class="cls-2" d="M50.07,78V96.63l-33.33,11.9A20,20,0,0,0,3.5,127.32V143.2H83.33"/><ellipse class="cls-3" cx="66.7" cy="43.41" rx="33.26" ry="39.91"/><path class="cls-3" d="M99.64,39.77c-1.11.14-1.89.1-3,.32C85.3,42.27,78,38.16,71.79,27.25c-3.74,7.17-15.44,12.84-25.05,12.84A26.73,26.73,0,0,1,33.86,37"/></svg>